<svg width="94" height="157" viewBox="0 0 94 157" fill="none" xmlns="http://www.w3.org/2000/svg">
<path d="M0.222354 112.921C3.27429 124.411 5.78763 137.157 8.12146 149.365C8.48051 151.34 9.01908 153.315 10.6348 154.392C20.8678 154.212 29.485 155.11 38.8203 155.828C40.9746 156.008 43.1289 155.648 45.2832 155.828C49.9509 156.187 55.1571 156.367 60.7224 156.367C66.6468 156.367 72.3916 156.187 77.2387 155.828C80.4702 155.648 83.5222 156.008 85.856 154.751C86.215 154.571 88.0103 152.597 88.0103 152.417C88.5488 151.34 88.7284 149.006 88.9079 147.211C89.626 141.646 90.5236 136.26 91.0622 130.515C91.2417 128.72 91.0622 127.104 91.2418 125.309C91.6008 122.436 92.3189 119.384 93.037 116.692C93.2165 115.794 93.7551 114.896 93.9346 113.999C94.4732 109.87 91.6008 108.254 88.3693 107.895C88.1898 101.073 88.5489 93.8918 88.1898 87.2493C88.0103 84.736 87.8308 81.325 86.7536 79.7093C86.0355 78.6321 84.4198 77.914 82.9836 77.1959C78.4954 75.0416 73.2892 73.9644 68.9806 71.9897C67.3648 72.1692 66.8263 71.2716 65.5696 71.092C64.672 70.1944 63.7743 69.4763 62.6972 68.7582C61.62 68.0401 60.902 66.963 59.6453 66.4244C57.85 65.7063 55.6957 66.2449 54.08 64.9882C57.85 63.3725 59.8248 59.9615 61.261 56.1914C65.3901 56.0119 66.8263 48.4719 62.8767 47.0356C63.0562 44.3428 63.7743 42.1885 63.5948 39.3161C65.9286 37.5208 64.3129 31.4169 64.1334 28.7241C63.9539 26.7493 64.4924 24.954 63.9539 23.3383C65.5696 22.4407 67.5444 22.0816 68.9806 21.543C74.5458 19.5683 79.7521 17.5935 84.5993 15.6187C84.5993 23.1588 84.7788 30.3398 85.3174 37.1618C84.2402 37.7003 83.5221 38.598 83.7017 40.3932C82.804 41.4704 81.9064 45.0609 82.2655 47.7537C82.6245 49.549 83.7016 51.8828 85.1378 50.0876C85.3174 50.6262 85.856 50.8057 86.5741 50.6262C88.1898 49.3695 86.5741 45.779 87.2922 43.4451C87.6512 43.9837 88.1898 46.138 88.5489 47.5742C88.7284 48.8309 88.5489 50.0876 90.1646 49.7285C90.8827 49.19 90.8827 48.1128 90.7031 47.2152C90.5236 45.0609 89.8055 42.727 88.9079 41.6499C89.985 40.7523 89.4465 38.0594 88.7284 37.1618C88.3693 36.8027 87.6512 36.9822 87.2922 36.8027C86.7536 29.6217 86.5741 22.2611 86.5741 14.5415C87.4717 13.8234 88.7284 14.362 88.9079 13.1053C89.0874 11.3101 86.215 11.1306 85.1378 10.7715C79.7521 9.51485 75.264 7.71959 70.9553 6.28339C67.7239 5.20624 64.4925 4.30859 61.4405 3.23144C58.3886 2.15428 55.3366 0.538576 52.1052 0C51.9257 0 51.7462 -1.6436e-05 51.5666 0.179509C49.4123 1.07714 47.0785 2.15429 44.7446 2.87239C40.9746 4.12907 36.8456 5.02671 32.7165 5.74481C30.7417 6.10386 28.9464 7.00149 26.9716 7.54006C24.9968 8.25816 22.8426 8.43769 20.8678 8.97627C16.9182 10.0534 13.1482 12.0282 9.37816 13.2849C7.22386 14.003 5.06953 14.5416 3.27428 15.6187C3.09476 17.5935 3.9924 17.4139 5.78765 17.5935C8.12148 17.773 10.8144 19.0297 13.1482 19.7478C15.123 20.2864 17.0978 20.2863 18.3544 21.184C18.1749 29.6217 17.8159 38.2389 19.2521 45.4199C16.2001 45.4199 15.123 48.6514 15.6615 52.0624C16.2001 54.9348 19.4316 56.5505 22.4835 56.1914C23.0221 56.9095 23.2016 57.8072 23.7402 58.3458C25.5354 61.0386 29.126 62.1158 30.2031 65.3472C28.9464 65.5268 28.0488 66.4244 26.6126 66.6039C26.074 66.6039 25.715 66.2449 25.1764 66.4244C23.7402 66.6039 21.5859 68.3992 19.9701 69.4763C19.0725 70.0149 18.1749 70.5535 17.4568 70.9125C16.5592 71.4511 15.8411 72.1692 14.9435 72.7078C13.8663 73.4259 11.8915 73.6054 10.2758 74.144C7.04433 75.0416 4.7105 77.0164 1.29952 77.3754C-0.495736 86.5312 0.581416 98.5594 2.19714 106.997C0.0428395 107.356 -0.316222 110.229 0.222354 112.921ZM84.7788 48.1128C83.7017 47.2152 84.4198 44.7018 84.5993 43.2656C85.1379 44.3428 84.5993 46.4971 84.7788 48.1128ZM86.9331 39.3161C87.1126 39.3161 87.1126 39.6751 87.1126 39.8546C86.7536 40.0342 85.4969 40.2137 85.6765 39.4956C86.215 39.6751 86.7536 39.6751 86.9331 39.3161ZM85.6765 106.459C86.215 106.638 85.856 107.536 85.6765 107.715C85.3174 107.715 85.3174 107.536 84.9584 107.536C85.1379 107.177 85.6765 106.997 85.6765 106.459ZM83.5221 107.536C83.3426 107.356 82.9836 107.356 82.6245 107.356C83.1631 105.381 84.7788 104.304 85.6765 102.868C86.5741 105.022 84.2402 106.1 83.5221 107.536ZM86.0355 100.534C84.7788 101.97 83.8812 103.766 82.445 104.843C82.0859 101.073 84.7788 100.175 85.856 97.8413C86.215 98.3799 85.8559 99.8161 86.0355 100.534ZM86.0355 95.8666C84.5993 97.1232 83.8812 99.098 82.445 100.355C82.0859 96.5847 84.9584 95.8666 85.856 93.3532C86.0355 93.8918 85.8559 94.9689 86.0355 95.8666ZM85.6765 91.7375C84.2402 92.6351 83.8812 94.7894 82.445 95.687C82.804 93.1737 84.2402 91.917 85.3174 90.1217C86.0355 90.3013 85.6765 91.1989 85.6765 91.7375ZM82.9836 91.558C82.445 89.0446 84.5993 87.9674 85.3174 86.3517C86.215 88.8651 83.8812 89.9422 82.9836 91.558ZM84.9584 82.7612C86.0355 84.3769 84.4198 85.4541 83.8812 86.7107C83.7017 85.4541 84.4198 83.8383 84.9584 82.7612ZM66.8263 74.503C66.8263 74.3235 66.8263 74.144 67.0058 74.144C69.6987 74.3235 72.0325 75.9392 75.2639 77.0164C76.5206 77.3754 78.1364 77.7345 79.3931 78.2731C80.2907 78.6321 82.6245 79.3502 82.9836 80.0683C83.5221 80.9659 82.445 82.5817 82.0859 83.8384C80.1112 90.3013 80.1112 98.739 80.2907 107.177C69.5192 106.459 57.491 106.997 46.3604 106.818C45.6423 102.689 45.6423 98.5594 45.2832 94.2508C45.1037 91.558 44.0266 89.0446 44.3856 86.1722C44.7447 85.9927 45.1037 86.7108 45.4628 87.2493C47.6171 89.5832 48.6942 91.5579 50.3099 94.9689C50.8485 96.0461 51.3871 97.6618 52.4643 97.8413C54.08 98.0209 56.7728 94.2508 57.4909 93.3532C58.9271 91.3784 60.1838 89.4036 61.261 87.6084C63.4153 83.6588 65.9287 79.3502 66.8263 74.503ZM43.488 105.561C43.847 105.561 43.6675 106.459 43.6675 106.638C43.3085 106.638 42.9494 106.638 42.5904 106.638C42.7699 106.1 43.3085 106.099 43.488 105.561ZM42.2313 105.022C41.3337 105.92 41.1541 106.997 39.7179 106.638C40.436 105.022 42.2313 104.304 43.3085 103.048C44.2061 104.125 42.9494 104.484 42.2313 105.022ZM42.9494 81.325C37.025 80.6069 33.7936 77.1959 30.7417 73.6054C33.7936 73.6054 32.5369 68.0401 32.5369 64.9882C36.4865 66.963 44.2061 67.322 49.2328 66.0653C49.5918 68.5787 50.669 70.5535 52.2847 71.9897C52.8233 71.9897 53.1824 71.9897 53.5414 71.8102C51.0281 76.1188 46.7194 78.4526 42.9494 81.325ZM42.0518 87.6084C40.6155 87.9674 40.6156 89.7627 39.5384 90.4808C39.8975 89.2241 40.9746 87.6084 41.6927 86.3517C42.0518 86.5312 42.0518 87.0698 42.0518 87.6084ZM64.4924 73.4259C64.3129 78.2731 61.9791 81.1455 60.0043 84.3769C57.85 88.147 55.8752 92.276 52.4643 94.7894C50.8485 89.7627 47.617 86.5312 44.7446 82.9407C50.1304 79.1707 55.5162 75.4007 57.85 68.5787C60.3634 69.8354 62.3381 71.6306 64.4924 73.4259ZM55.1571 68.5787C55.3367 69.4763 54.439 70.1944 54.08 71.092C53.5414 69.4763 52.1052 68.7582 51.9256 66.963C53.0028 67.5015 54.9776 67.5015 55.1571 68.5787ZM84.0607 12.7463C83.7017 13.1053 82.9836 13.1053 82.6245 13.6439C80.1111 12.7463 77.7773 11.6691 75.4435 10.4125C77.9568 10.951 81.0088 12.2077 84.0607 12.7463ZM17.0977 18.3116C14.4049 17.414 11.712 16.8754 9.19862 15.9777C12.2506 14.9006 15.482 13.4644 18.7134 12.3872C22.304 11.1306 26.6126 10.2329 30.7417 8.79673C31.9984 8.43768 32.896 8.07863 34.5117 7.89911C40.2565 6.82195 46.7194 4.30861 52.1052 2.69288C53.5414 2.33383 56.4138 3.59049 58.0296 4.12906C63.0563 6.10384 68.2625 7.71957 73.6482 9.51482C73.8278 9.69435 73.6482 10.2329 73.8278 10.4125C75.623 12.0282 78.1364 13.1053 80.6497 14.003C79.2135 15.6187 76.5207 13.1053 75.0845 12.3872C73.4687 11.6691 72.0325 10.592 70.4168 10.951C70.7758 12.5668 72.7506 12.7463 74.0073 13.2849C75.4435 14.003 76.7002 14.7211 77.7773 15.4392C77.4183 15.7982 76.7001 15.9778 76.1616 16.1573C72.7506 15.0801 70.2372 13.1054 67.1853 11.6692C67.0058 11.6692 67.0058 11.8487 66.8263 11.8487C66.8263 13.2849 68.6215 13.6439 69.6987 14.1825C71.3144 15.0801 72.9301 15.7982 74.5459 16.8754C72.0325 18.3116 70.5963 16.3368 68.6215 15.0801C67.3649 14.362 66.1082 13.2849 64.672 13.6439C65.031 15.0801 66.6468 15.4392 67.7239 16.1573C68.8011 16.8754 70.0577 17.414 70.9553 18.3116C69.3396 19.5683 68.2625 18.1321 66.8263 17.414C66.1082 17.0549 64.672 16.5163 63.9539 16.1573C63.2358 15.7982 61.261 14.9006 61.261 15.9777C61.261 16.6959 62.3381 16.6959 62.6972 16.8754C64.3129 17.414 66.1082 18.8501 67.5444 19.3887C65.3901 21.184 63.4153 19.2092 61.0815 17.9525C60.3633 17.5935 59.6453 17.2344 58.9272 16.6958C58.3886 16.3368 57.6705 15.2597 56.9524 16.1573C57.491 17.414 58.9271 17.9525 60.0043 18.6706C61.261 19.3887 62.3381 19.9273 63.5948 20.4659C63.4153 20.8249 62.8767 20.8249 62.6972 21.0045C60.3633 19.9273 57.85 18.6706 55.3367 17.414C54.7981 17.0549 53.7209 16.1573 53.0028 16.8754C53.5414 18.3116 55.5162 18.6706 56.7729 19.3887C58.2091 20.1068 59.4657 20.8249 60.9019 21.3635C60.7224 21.9021 59.8248 21.9021 59.4657 22.2611C59.1067 21.3635 58.3886 21.543 57.4909 21.0045C56.2343 20.4659 55.1571 19.5683 53.9004 18.8502C53.5414 18.6706 53.1824 18.6706 52.6438 18.4911C51.9257 18.132 51.2076 17.0549 50.4895 18.132C50.8485 19.3887 52.2847 19.3887 53.1824 19.9273C54.7981 20.8249 56.0547 22.0816 58.209 22.4407C57.6705 22.9793 56.7729 23.1588 56.0548 23.6973C53.9005 22.6202 51.9257 21.543 49.5918 20.4659C49.2328 20.2864 46.899 19.0297 46.899 20.2863C46.899 21.0044 47.7966 21.0044 48.1557 21.184C49.9509 21.9021 52.4643 23.5178 54.439 24.4154C54.2595 24.7745 53.5414 24.7745 53.0028 24.954C51.3871 23.8769 49.5918 22.9792 47.7966 22.0816C47.0785 21.7226 46.0013 20.8249 45.2832 21.543C45.8218 22.6202 47.4375 22.9792 48.5147 23.6973C49.5918 24.4154 51.028 24.7745 51.9256 25.4926C49.7713 25.6721 47.9761 24.2359 46.0013 23.1588C45.1037 22.6202 43.3084 21.543 42.0518 22.2611C42.0518 23.5178 43.488 23.3383 44.2061 23.5178C45.6423 24.0564 47.0785 25.3131 48.1557 26.0312C40.4361 25.4926 34.8707 21.9021 27.8693 20.4659C24.4583 19.9273 20.6882 19.3887 17.0977 18.3116ZM57.1319 36.6232C58.5681 36.4436 59.8248 37.7003 60.9019 38.4184C59.8248 38.4184 58.2091 37.5208 57.1319 36.6232ZM61.0815 40.0341C60.7224 39.8546 60.3633 39.6751 60.0043 39.4956C59.8248 39.4956 61.0815 39.6751 61.0815 40.0341ZM40.077 33.2122C36.1275 33.7508 31.8188 33.2122 28.2283 33.3917C26.2535 33.5712 24.0992 34.1098 22.304 34.6484C21.7654 34.8279 21.2268 35.3665 20.5087 35.0075C20.3292 34.1098 21.2268 35.0075 21.4063 34.4689C22.663 34.1098 24.4583 33.5713 25.8945 33.2122C26.6126 33.0327 28.9464 33.3917 29.126 32.4941C29.3055 31.2374 25.7149 32.135 24.9968 32.3146C23.2016 32.6736 22.663 33.0327 20.8678 33.5712C20.8678 33.0327 20.8678 32.6736 20.8678 32.135C22.663 32.3146 24.8173 30.6988 26.7921 30.5193C27.3307 30.5193 28.2283 31.0579 28.4079 30.1602C27.6898 28.365 24.8173 29.6217 23.3811 30.1602C22.4835 30.5193 21.5859 31.0579 20.3292 31.0579C20.3292 30.6988 20.1497 30.5193 20.1497 30.1602C21.5859 29.9807 23.7402 28.7241 25.715 28.5445C26.4331 28.365 27.5102 28.9036 27.8693 28.0059C27.5102 26.7493 26.074 27.4674 24.9968 27.6469C23.2016 28.006 22.304 28.5445 20.5087 29.0831C20.5087 28.5445 20.5087 28.006 20.5087 27.6469C22.304 26.5697 24.9969 26.3902 27.1512 26.2107C26.9716 24.2359 23.9197 25.1336 22.304 25.4926C21.5859 25.6721 20.8678 26.0312 20.5087 26.2107C20.1497 24.954 20.5087 23.3383 20.3292 21.9021C20.5087 21.9021 20.5087 21.7226 20.5087 21.9021C24.0992 22.6202 27.6897 22.9792 31.2802 24.0564C32.896 24.595 34.3322 25.3131 35.7684 25.8516C38.6408 26.7493 41.3337 27.2878 44.0265 28.365C45.1037 28.724 46.1809 29.2626 47.258 29.4422C47.6171 29.4422 47.7966 29.2626 48.1557 29.2626C48.6942 29.2626 49.2328 29.6217 49.5918 29.4422C51.028 29.2626 52.4642 28.0059 53.9004 27.4674C54.439 27.2878 54.9776 27.2878 55.3367 27.1083C57.491 26.3902 59.1067 24.954 61.0815 24.2359C61.0815 28.5445 62.3381 32.135 61.9791 36.4436C57.3114 32.8531 48.1557 32.3146 40.077 33.2122ZM57.1319 38.0594C56.9524 38.0594 55.8752 37.8799 55.8752 37.1618C56.4138 37.3413 56.5933 37.8799 57.1319 38.0594ZM22.304 41.1113C23.2016 40.5727 23.7402 39.6751 24.8174 39.3161C26.9717 38.5979 29.6645 38.7775 31.8188 38.0594C28.0488 39.1365 23.7402 40.3932 21.0473 42.0089C21.0473 41.4704 21.9449 41.4704 22.304 41.1113ZM20.8678 39.3161C20.8678 38.7775 20.8678 38.4184 20.8678 37.8798C24.4583 36.8027 26.9717 35.9051 31.1007 35.7255C29.8441 36.4436 28.4078 36.2641 26.9716 36.6232C24.4583 36.9822 22.663 38.0594 20.8678 39.3161ZM27.1512 58.7048C26.4331 57.9867 25.7149 56.9095 24.9968 56.0119C25.5354 54.9348 24.9968 53.4985 23.2016 53.4985C22.663 53.4985 22.304 53.8576 21.7654 54.0371C18.5339 54.3962 16.7387 50.6262 18.7134 47.9333C19.7906 47.7537 19.6111 48.8309 20.8678 48.6514C22.663 48.2923 21.4063 45.5994 21.4063 43.8042C24.6378 40.3932 31.6393 39.4956 37.2046 37.8798C38.6408 37.5208 39.8974 36.9822 41.1541 36.6232C42.9494 36.4436 44.2061 36.9822 45.6423 36.8027C47.0785 36.6232 47.9761 36.2641 49.2328 36.2641C53.0028 36.4437 55.5162 39.4956 59.1067 40.3932C59.6452 41.1113 60.5429 41.6499 60.9019 42.5475C60.7224 43.4451 60.7224 44.7018 60.3634 45.9585C60.0043 46.8561 59.6453 47.2152 59.8248 48.1128C60.1839 49.1899 61.4405 48.8309 62.3382 49.3695C62.8767 50.6262 62.5177 52.2419 61.6201 53.1395C60.7224 53.8576 59.4657 53.6781 58.7476 54.5757C58.3886 55.1143 58.3886 56.0119 58.209 56.73C57.1319 59.4229 54.6186 62.2953 51.5666 63.1929C51.0281 63.3725 50.31 63.3724 49.7714 63.3724C46.899 63.911 44.2061 64.8087 40.2565 64.4496C37.3841 64.2701 33.0755 63.0134 30.9212 61.7567C29.6645 61.2181 28.4078 59.782 27.1512 58.7048ZM30.3826 68.0401C31.1007 69.2968 30.3826 71.2716 30.2031 72.5283C29.126 71.6306 28.4078 70.1944 27.6897 69.1173C28.2283 68.5787 29.485 68.3992 30.3826 68.0401ZM24.9968 69.8354H25.1764C25.715 71.6306 26.9716 72.8873 28.2283 74.3235C30.9212 77.7345 33.9731 80.7864 38.4612 82.7612C39.5384 82.7612 39.8975 83.2998 40.9746 83.1202C40.7951 84.0179 39.8974 84.736 39.3589 85.6336C37.7431 88.3265 36.4865 91.5579 34.5117 93.8918C30.5622 91.5579 28.7669 87.4288 25.3559 84.0179C22.304 80.9659 19.9701 77.7345 17.8158 74.144C19.9701 72.5282 22.663 71.6306 24.9968 69.8354ZM15.3025 75.2211C16.2001 74.8621 16.7387 76.8368 17.0977 77.7345C19.6111 82.2226 23.7402 85.4541 26.6126 89.2241C27.8693 90.8399 28.9464 92.4556 30.2031 93.8918C31.9984 94.7894 35.0503 98.9185 36.4865 95.328C36.666 95.1484 36.8456 95.5075 37.3841 95.328C39.1794 93.5327 40.6155 91.1989 42.0518 89.0446C43.1289 91.3784 41.3337 93.1737 39.8975 94.7894C38.9999 95.8665 37.5636 96.9437 37.7432 98.3799C38.9998 98.2004 39.7179 96.9437 40.436 96.0461C41.1541 95.1485 41.8723 94.2508 42.5904 93.1737C42.9494 93.5327 42.7699 94.4304 43.1289 94.9689C42.0518 96.0461 40.9746 97.1232 39.8975 98.3799C38.9999 99.4571 37.3841 100.534 37.7432 102.15C38.8203 102.329 38.9998 100.893 39.5384 100.355C40.6156 98.9185 42.0518 97.6618 43.3085 96.7642C43.488 97.3027 43.488 97.8413 43.488 98.5594C42.5904 99.6366 41.5132 100.355 40.6156 101.432C39.7179 102.329 38.6408 103.407 38.1022 104.663C39.3589 105.561 40.2565 103.766 40.9746 102.868C41.8723 101.97 42.9494 100.893 43.6675 100.355C43.847 102.689 40.2565 103.586 39.1794 105.202C38.9999 105.561 38.9999 106.099 38.9999 106.459C29.485 107.356 20.8678 105.202 10.9939 105.74C7.76242 98.0209 4.53096 90.3013 4.71049 79.1707C7.76242 77.7345 11.712 76.4778 15.3025 75.2211ZM8.12146 106.279C7.94194 106.279 7.76243 106.279 7.58291 106.279C7.58291 106.1 7.76244 106.1 7.76244 105.74C7.94197 105.92 8.12146 105.92 8.12146 106.279ZM6.50574 103.227C7.5829 104.304 6.50573 105.202 6.32621 106.459C5.60811 106.279 5.06954 106.818 4.71049 106.459C5.78764 105.74 5.96717 104.304 6.50574 103.227ZM4.53095 105.022C3.4538 103.048 4.89 101.252 5.42858 99.4571C6.68526 101.252 4.89 103.407 4.53095 105.022ZM4.71049 97.4823C4.35144 98.2004 4.35143 99.4571 3.63333 99.9956C3.27427 97.3028 3.2743 94.4303 3.09477 91.7375C3.81287 93.5327 3.99239 95.8665 4.71049 97.4823ZM20.3292 108.433C31.9984 109.51 44.2061 108.972 57.3114 108.972C63.7743 108.972 70.4168 108.613 75.9821 108.972C80.8293 109.331 85.1379 110.229 90.1646 110.588C90.7032 111.306 91.4212 111.665 91.4212 112.742C91.4212 113.46 91.0622 113.64 90.8827 114.358C90.7031 114.717 90.8827 115.255 90.7031 115.614C90.1646 119.384 88.9079 122.975 88.5489 127.104C88.5489 128.002 88.5489 128.72 88.5489 129.617C88.0103 135.901 87.1126 142.364 86.215 147.57C86.215 148.108 85.4969 147.39 85.3174 147.749C84.7788 149.186 84.5993 151.16 84.0607 152.597C83.7017 152.597 82.9836 152.956 82.6245 152.776C82.804 152.058 83.7016 147.57 82.445 147.39C81.0088 147.211 82.2655 152.417 81.1883 153.135C80.6497 152.956 80.4702 153.315 79.9316 153.315C80.2907 152.597 80.8292 148.108 79.7521 147.929C77.9568 147.749 80.1112 153.494 78.3159 153.494C77.4183 152.238 79.034 148.108 77.4183 147.929C75.9821 147.749 77.0592 152.238 76.7002 153.494C74.9049 153.674 73.2892 153.674 71.494 153.853C71.6735 152.417 72.5711 149.365 71.3144 148.288C70.4168 148.647 70.4168 150.981 70.4168 152.597C70.4168 153.135 70.4168 154.212 70.5963 154.212C70.2373 154.212 69.6987 154.212 69.3396 154.212C68.9806 152.417 70.0578 147.57 68.8011 147.57C67.3649 147.39 68.442 152.417 68.0829 154.212C67.5444 154.212 67.0058 154.212 66.6468 154.212C66.2877 152.417 67.3649 147.39 66.1082 147.39C64.672 147.211 65.7491 152.417 65.3901 154.212C64.672 154.212 63.9539 154.212 63.2358 154.212C62.8767 152.417 63.9538 148.647 62.6972 148.467C61.261 148.288 62.3381 152.417 61.9791 154.212C61.62 154.212 61.0815 154.212 60.7224 154.212C60.3634 152.417 61.4405 148.827 60.1838 148.647C58.9271 148.467 59.8248 152.417 59.4657 154.212C58.9272 154.212 58.3886 154.212 58.0296 154.212C57.6705 152.417 58.7476 148.827 57.4909 148.647C56.2343 148.467 57.1319 152.417 56.7729 154.212C56.2343 154.212 55.5162 154.212 54.9776 154.212C54.6186 152.417 55.3367 148.647 54.08 148.467C52.6438 148.288 54.08 152.417 53.5414 154.212C53.0028 154.212 52.2847 154.212 51.7462 154.212C51.3871 152.417 52.4642 148.288 51.2076 148.108C49.7714 147.929 50.8485 152.776 50.4895 154.033C49.7714 154.033 49.4123 153.853 48.6942 153.853C47.9761 153.135 49.2328 147.929 47.7966 147.749C46.5399 147.57 47.258 152.597 47.258 153.674C46.7195 153.674 46.1808 153.494 45.8218 153.494C45.4627 151.878 46.5399 148.467 45.2832 148.467C43.847 148.288 44.9242 152.597 44.5652 154.392C44.0266 154.392 43.3085 154.392 42.7699 154.392C42.9494 152.597 42.5904 152.417 42.5904 151.16C42.4108 149.904 42.9494 147.57 42.0518 147.57C40.9746 147.57 41.3337 149.365 41.3337 150.263C41.3337 151.519 41.6927 152.417 41.5132 153.674C40.9746 153.674 40.2565 153.853 39.8975 153.494C39.5384 152.417 40.077 148.467 38.9999 148.288C37.5636 148.108 38.9998 152.417 38.4612 154.212C38.1022 154.212 37.7432 154.212 37.3841 154.212C36.4865 152.417 37.9227 147.929 36.4865 147.749C35.2298 147.57 35.9479 152.597 35.9479 153.494C35.4093 153.494 34.8708 153.315 34.5117 153.135C33.9731 152.058 35.0503 147.211 33.7936 147.031C32.5369 146.852 33.255 151.699 33.255 152.956C32.5369 152.776 31.6393 152.776 31.1007 152.597C30.7417 151.16 31.8188 147.39 30.5621 147.211C29.3055 147.031 30.0236 151.16 30.0236 152.417C29.485 152.776 28.9464 152.238 28.2283 152.417C28.0488 151.16 28.4079 147.031 27.3307 146.852C25.8945 146.672 27.3307 150.981 26.7921 152.417C26.2535 152.417 25.8945 152.417 25.5354 152.238C25.3559 150.442 25.8945 147.031 24.6378 146.852C23.3811 146.672 24.6378 150.801 24.0992 152.058C23.5606 152.058 22.8425 152.058 22.304 151.878C21.4063 151.34 22.4835 146.134 21.2268 145.954C19.7906 145.775 21.0473 150.981 21.0473 151.878C20.5087 151.699 19.9702 151.699 19.2521 151.699C18.7135 151.16 18.893 146.493 17.6363 146.672C16.3797 146.852 18.1749 150.981 17.9954 151.699C17.0977 151.699 16.2001 151.699 15.482 151.519C14.7639 149.904 15.8411 146.672 14.0458 146.313C13.3277 147.39 14.4048 150.263 14.2253 152.058C13.8663 152.058 13.3277 152.058 12.9687 152.058C12.7891 150.263 12.4301 146.672 11.353 146.852C10.0963 147.031 12.071 150.442 11.712 151.519C10.2758 150.801 9.73722 148.827 9.5577 147.211C9.19865 145.775 9.1986 143.979 8.83955 142.543C7.94192 137.337 6.68527 132.49 5.60812 127.284C5.24907 125.488 5.06954 123.693 4.71049 122.077C3.81286 118.128 2.37667 113.819 2.19714 109.51C7.22386 108.074 14.0458 107.895 20.3292 108.433Z" fill="#18353F"/>
</svg>
